<svg width="177" height="68" viewBox="0 0 177 68" fill="none" xmlns="http://www.w3.org/2000/svg">
<g clip-path="url(#clip0_1_556)">
<path fill-rule="evenodd" clip-rule="evenodd" d="M106.555 32.0164C106.774 32.393 106.845 32.8215 106.869 33.3032L106.9 33.9453V38.435L106.931 39.0778C106.995 40.1275 107.769 40.9036 108.827 40.9696L109.466 41.0013V33.9453L109.498 33.3032C109.524 32.8269 109.595 32.3903 109.816 32.011C110.042 31.6219 110.366 31.2991 110.756 31.075C111.146 30.8509 111.589 30.7333 112.039 30.7342C112.488 30.735 112.93 30.8541 113.319 31.0797C113.709 31.3052 114.032 31.6292 114.256 32.019C114.474 32.3957 114.542 32.8322 114.569 33.3032L114.6 33.9432V38.435L114.632 39.0778C114.698 40.1329 115.466 40.909 116.527 40.9696L117.167 41.0013V33.3032C117.167 31.942 116.626 30.6364 115.664 29.6737C114.701 28.711 113.396 28.1699 112.035 28.1693C111.306 28.1685 110.586 28.3233 109.922 28.6231C109.258 28.923 108.666 29.3611 108.184 29.9082C107.703 29.3614 107.111 28.9233 106.447 28.6234C105.783 28.3234 105.063 28.1684 104.334 28.1686C103.268 28.1686 102.279 28.492 101.46 29.0506C100.96 28.4927 99.8416 28.1686 99.1995 28.1686V41.0013L99.8416 40.9696C100.915 40.8989 101.692 40.1436 101.733 39.0778L101.768 38.435V33.9453L101.799 33.3032C101.826 32.8188 101.894 32.393 102.113 32.0137C102.339 31.6248 102.663 31.3021 103.053 31.0777C103.442 30.8533 103.884 30.7351 104.334 30.7349C104.784 30.735 105.226 30.8535 105.616 31.0784C106.006 31.3033 106.33 31.6268 106.555 32.0164ZM62.6257 40.9703L63.2678 41.0013H72.8921L72.8604 40.3613C72.7735 39.3062 72.0264 38.5354 70.9679 38.4667L70.3258 38.435H64.5519L72.25 30.7342L72.2184 30.0949C72.1685 29.029 71.3897 28.2589 70.3258 28.2003L69.6838 28.1713L60.0594 28.1686L60.0911 28.8107C60.1753 29.8557 60.9333 30.6426 61.983 30.7032L62.6257 30.7349H68.3996L60.7015 38.4357L60.7332 39.0778C60.7965 40.1356 61.5599 40.9016 62.6257 40.9696V40.9703ZM96.6804 30.047C97.2763 30.6428 97.749 31.3502 98.0716 32.1287C98.3941 32.9072 98.5601 33.7416 98.5601 34.5843C98.5601 35.427 98.3941 36.2614 98.0716 37.0399C97.749 37.8184 97.2763 38.5258 96.6804 39.1216C95.4764 40.3246 93.8441 41.0003 92.1421 41.0003C90.4401 41.0003 88.8078 40.3246 87.6038 39.1216C85.0982 36.616 85.0982 32.5526 87.6038 30.047C88.1992 29.4514 88.9061 28.9789 89.684 28.6565C90.462 28.3341 91.2959 28.1681 92.1381 28.168C92.9816 28.1674 93.8169 28.3331 94.5963 28.6556C95.3758 28.9782 96.0839 29.4512 96.6804 30.0477V30.047ZM94.8647 31.8641C95.5864 32.5863 95.9918 33.5656 95.9918 34.5867C95.9918 35.6077 95.5864 36.587 94.8647 37.3092C94.1424 38.0309 93.1631 38.4364 92.1421 38.4364C91.1211 38.4364 90.1418 38.0309 89.4195 37.3092C88.6978 36.587 88.2924 35.6077 88.2924 34.5867C88.2924 33.5656 88.6978 32.5863 89.4195 31.8641C90.1418 31.1424 91.1211 30.737 92.1421 30.737C93.1631 30.737 94.1424 31.1424 94.8647 31.8641ZM78.6714 28.168C79.5136 28.1682 80.3475 28.3343 81.1255 28.6568C81.9035 28.9794 82.6103 29.452 83.2057 30.0477C85.712 32.5526 85.712 36.6166 83.2057 39.1216C82.0017 40.3246 80.3693 41.0003 78.6674 41.0003C76.9654 41.0003 75.3331 40.3246 74.1291 39.1216C71.6235 36.616 71.6235 32.5526 74.1291 30.047C74.7245 29.4514 75.4313 28.9789 76.2093 28.6565C76.9873 28.3341 77.8212 28.1681 78.6633 28.168H78.6714ZM81.3899 31.8627C82.1119 32.585 82.5174 33.5644 82.5174 34.5856C82.5174 35.6069 82.1119 36.5863 81.3899 37.3086C80.6677 38.0303 79.6884 38.4357 78.6674 38.4357C77.6463 38.4357 76.6671 38.0303 75.9448 37.3086C75.2231 36.5863 74.8177 35.607 74.8177 34.586C74.8177 33.5649 75.2231 32.5857 75.9448 31.8634C76.6671 31.1417 77.6463 30.7363 78.6674 30.7363C79.6884 30.7363 80.6677 31.1417 81.3899 31.8634V31.8627Z" fill="#4C4C4D"/>
</g>
<defs>
<clipPath id="clip0_1_556">
<rect width="57.1666" height="28" fill="white" transform="translate(60.0596 20)"/>
</clipPath>
</defs>
</svg>
