<svg width="221" height="94" viewBox="0 0 221 94" fill="none" xmlns="http://www.w3.org/2000/svg">
<g clip-path="url(#clip0_1_76)">
<path fill-rule="evenodd" clip-rule="evenodd" d="M119.661 56.7792C115.153 60.1016 108.62 61.8743 102.995 61.8743C95.1074 61.8743 88.0068 58.957 82.6349 54.1051C82.2129 53.7236 82.591 53.2036 83.0975 53.5007C88.8948 56.8738 96.063 58.903 103.467 58.903C108.461 58.903 113.955 57.8698 119.006 55.7258C119.769 55.4016 120.407 56.2255 119.661 56.7792Z" fill="#4C4C4D"/>
<path fill-rule="evenodd" clip-rule="evenodd" d="M121.535 54.6352C120.961 53.8992 117.726 54.2875 116.274 54.4596C115.832 54.5137 115.764 54.1288 116.163 53.8519C118.739 52.0388 122.966 52.5621 123.459 53.1699C123.952 53.781 123.331 58.0184 120.91 60.0409C120.539 60.3515 120.184 60.1861 120.35 59.7741C120.893 58.4168 122.112 55.3747 121.535 54.6352Z" fill="#4C4C4D"/>
<path fill-rule="evenodd" clip-rule="evenodd" d="M116.377 41.0526V39.2901C116.377 39.0233 116.579 38.8444 116.822 38.8444H124.713C124.966 38.8444 125.169 39.0267 125.169 39.2901V40.7993C125.166 41.0526 124.953 41.3835 124.575 41.9068L120.486 47.7446C122.005 47.7075 123.609 47.9337 124.987 48.7103C125.297 48.8859 125.382 49.1425 125.405 49.3957V51.2764C125.405 51.533 125.122 51.8335 124.825 51.6782C122.397 50.4053 119.172 50.2668 116.488 51.6917C116.215 51.8403 115.928 51.5431 115.928 51.2865V49.5004C115.928 49.2134 115.931 48.7238 116.218 48.2883L120.955 41.4949H116.833C116.579 41.4949 116.377 41.3159 116.377 41.0526Z" fill="#4C4C4D"/>
<path fill-rule="evenodd" clip-rule="evenodd" d="M87.5927 52.0496H85.1921C84.9625 52.0327 84.7801 51.8605 84.7632 51.6411V39.3205C84.7632 39.074 84.9692 38.8782 85.2258 38.8782H87.4644C87.6974 38.8883 87.8831 39.0673 87.8999 39.2901V40.9007H87.9438C88.528 39.3441 89.6253 38.6182 91.1042 38.6182C92.6067 38.6182 93.5453 39.3441 94.2206 40.9007C94.8013 39.3441 96.1215 38.6182 97.5363 38.6182C98.5424 38.6182 99.6431 39.0335 100.315 39.9654C101.075 41.002 100.919 42.5078 100.919 43.828L100.916 51.6039C100.916 51.8504 100.71 52.0496 100.453 52.0496H98.0562C97.8165 52.0327 97.624 51.8403 97.624 51.6039V45.0739C97.624 44.554 97.6713 43.2574 97.5565 42.7644C97.3776 41.9372 96.8407 41.7042 96.1452 41.7042C95.5644 41.7042 94.9567 42.0925 94.7102 42.7138C94.4637 43.3351 94.4873 44.375 94.4873 45.0739V51.6039C94.4873 51.8504 94.2814 52.0496 94.0248 52.0496H91.6275C91.3844 52.0327 91.1953 51.8403 91.1953 51.6039L91.192 45.0739C91.192 43.6997 91.4182 41.6772 89.7131 41.6772C87.9877 41.6772 88.0553 43.6491 88.0553 45.0739V51.6039C88.0553 51.8504 87.8493 52.0496 87.5927 52.0496Z" fill="#4C4C4D"/>
<path fill-rule="evenodd" clip-rule="evenodd" d="M131.962 38.6182C135.524 38.6182 137.452 41.6772 137.452 45.5669C137.452 49.3248 135.322 52.3062 131.962 52.3062C128.464 52.3062 126.56 49.2472 126.56 45.4352C126.56 41.5996 128.488 38.6182 131.962 38.6182ZM131.982 41.1336C130.213 41.1336 130.102 43.5444 130.102 45.0469C130.102 46.5528 130.078 49.7671 131.962 49.7671C133.823 49.7671 133.91 47.1741 133.91 45.5939C133.91 44.554 133.866 43.3114 133.552 42.3255C133.282 41.4679 132.746 41.1336 131.982 41.1336Z" fill="#4C4C4D"/>
<path fill-rule="evenodd" clip-rule="evenodd" d="M142.071 52.0496H139.681C139.441 52.0327 139.249 51.8403 139.249 51.6039L139.245 39.28C139.266 39.0538 139.465 38.8782 139.708 38.8782H141.933C142.142 38.8883 142.314 39.0301 142.362 39.2226V41.1066H142.406C143.077 39.4218 144.02 38.6182 145.677 38.6182C146.754 38.6182 147.804 39.0065 148.48 40.0701C149.108 41.056 149.108 42.7138 149.108 43.9057V51.6613C149.081 51.8774 148.882 52.0496 148.645 52.0496H146.238C146.018 52.0327 145.836 51.8707 145.812 51.6613V44.9693C145.812 43.6221 145.968 41.6502 144.31 41.6502C143.726 41.6502 143.189 42.0419 142.922 42.6361C142.585 43.3891 142.541 44.1387 142.541 44.9693V51.6039C142.537 51.8504 142.328 52.0496 142.071 52.0496Z" fill="#4C4C4D"/>
<path fill-rule="evenodd" clip-rule="evenodd" d="M110.086 46.1645C110.086 47.0998 110.11 47.8797 109.637 48.7103C109.256 49.3856 108.648 49.8009 107.976 49.8009C107.054 49.8009 106.514 49.0986 106.514 48.062C106.514 46.0159 108.348 45.6445 110.086 45.6445V46.1645ZM112.507 52.0158C112.349 52.1576 112.119 52.1678 111.94 52.0732C111.143 51.4114 110.998 51.1042 110.563 50.4728C109.246 51.8166 108.31 52.2184 106.605 52.2184C104.583 52.2184 103.013 50.9725 103.013 48.4773C103.013 46.5291 104.066 45.2022 105.572 44.5539C106.875 43.9799 108.695 43.8786 110.086 43.72V43.4093C110.086 42.8387 110.13 42.1634 109.793 41.6705C109.502 41.2282 108.942 41.0458 108.446 41.0458C107.531 41.0458 106.717 41.5151 106.518 42.4876C106.477 42.7036 106.318 42.9164 106.099 42.9265L103.773 42.6766C103.577 42.6327 103.357 42.4741 103.415 42.1736C103.948 39.3509 106.501 38.5 108.783 38.5C109.951 38.5 111.478 38.8106 112.399 39.6953C113.568 40.7858 113.456 42.2411 113.456 43.8246V47.5657C113.456 48.6901 113.922 49.183 114.361 49.7908C114.513 50.0069 114.547 50.2668 114.351 50.4289C113.861 50.8375 112.99 51.5972 112.511 52.0226L112.507 52.0158Z" fill="#4C4C4D"/>
<path fill-rule="evenodd" clip-rule="evenodd" d="M78.6147 46.1645C78.6147 47.0997 78.6384 47.8797 78.1657 48.7103C77.7841 49.3856 77.1798 49.8009 76.5045 49.8009C75.5827 49.8009 75.0459 49.0986 75.0459 48.062C75.0459 46.0159 76.8793 45.6445 78.6147 45.6445V46.1645ZM81.0356 52.0158C80.8769 52.1576 80.6473 52.1678 80.4684 52.0732C79.6716 51.4114 79.5297 51.1042 79.0908 50.4728C77.774 51.8166 76.8421 52.2184 75.1336 52.2184C73.1145 52.2184 71.5411 50.9725 71.5411 48.4773C71.5411 46.5291 72.598 45.2022 74.1005 44.5539C75.4038 43.9799 77.2237 43.8786 78.6147 43.72V43.4093C78.6147 42.8387 78.6586 42.1634 78.3244 41.6705C78.0306 41.2281 77.4701 41.0458 76.9772 41.0458C76.0622 41.0458 75.2451 41.5151 75.0459 42.4876C75.0053 42.7036 74.8467 42.9164 74.6306 42.9265L72.3008 42.6766C72.105 42.6327 71.8889 42.474 71.9429 42.1735C72.4798 39.3509 75.029 38.5 77.3114 38.5C78.4797 38.5 80.0058 38.8106 80.9276 39.6953C82.0958 40.7858 81.9844 42.2411 81.9844 43.8246V47.5657C81.9844 48.69 82.4504 49.183 82.8893 49.7908C83.0446 50.0068 83.0784 50.2668 82.8825 50.4289C82.393 50.8374 81.5218 51.5971 81.0424 52.0226L81.0356 52.0158Z" fill="#4C4C4D"/>
</g>
<defs>
<clipPath id="clip0_1_76">
<rect width="77.9166" height="34" fill="white" transform="translate(71.5417 30)"/>
</clipPath>
</defs>
</svg>
