<svg width="220" height="94" viewBox="0 0 220 94" fill="none" xmlns="http://www.w3.org/2000/svg">
<g clip-path="url(#clip0_1_81)">
<path d="M73.0483 34.25H62.6819V59.0417L73.0483 34.25Z" fill="#4C4C4D"/>
<path d="M80.342 34.25H90.695V59.0417L80.342 34.25Z" fill="#4C4C4D"/>
<path d="M76.695 43.3877L83.293 59.042H78.9641L76.9921 54.058H72.1635L76.695 43.3877Z" fill="#4C4C4D"/>
<path d="M107.607 50.0148L108.83 53.5198C108.87 53.6076 108.931 53.6482 109.039 53.6482H111.389C111.518 53.6482 111.538 53.5874 111.518 53.4591L106.662 39.9726C106.642 39.8645 106.621 39.8442 106.513 39.8442H103.596C103.515 39.8442 103.468 39.905 103.468 39.9928C103.427 40.7019 103.366 40.918 103.279 41.1274L98.9496 53.4388C98.9293 53.5874 98.9766 53.6482 99.0982 53.6482H101.198C101.327 53.6482 101.388 53.6076 101.435 53.4793L102.59 50.0148H107.607ZM103.258 47.7254C103.893 45.8075 104.731 43.3492 105.068 41.9445H105.088C105.507 43.4168 106.493 46.3342 106.939 47.7254H103.258Z" fill="#4C4C4D"/>
<path d="M117.76 53.8566C119.023 53.8566 120.367 53.627 121.731 53.0394C121.839 52.9989 121.859 52.9516 121.859 52.8503C121.819 52.4721 121.772 51.9251 121.772 51.5064V38.81C121.772 38.729 121.772 38.6885 121.67 38.6885H119.381C119.293 38.6885 119.253 38.729 119.253 38.8371V43.139C118.895 43.0984 118.645 43.0782 118.348 43.0782C114.653 43.0782 112.384 45.5161 112.384 48.5619C112.384 52.0939 114.714 53.8566 117.76 53.8566ZM119.253 51.5064C118.874 51.628 118.456 51.6752 118.03 51.6752C116.355 51.6752 114.984 50.7298 114.984 48.4336C114.984 46.4008 116.396 45.1987 118.267 45.1987C118.645 45.1987 118.976 45.2393 119.253 45.3473V51.5064Z" fill="#4C4C4D"/>
<path d="M129.161 43.0796C126.008 43.0796 124.056 45.4973 124.056 48.4823C124.056 51.1499 125.609 53.858 129.114 53.858C132.079 53.858 134.159 51.6766 134.159 48.4148C134.159 45.5378 132.396 43.0796 129.161 43.0796ZM129.033 45.2002C130.816 45.2002 131.572 46.7332 131.572 48.4823C131.572 50.6434 130.458 51.7172 129.161 51.7172C127.561 51.7172 126.615 50.3732 126.615 48.435C126.615 46.4428 127.622 45.2002 129.033 45.2002Z" fill="#4C4C4D"/>
<path d="M136.527 38.6885C136.439 38.6885 136.378 38.729 136.378 38.8371V53.2082C136.378 53.269 136.439 53.3771 136.527 53.3973C137.533 53.708 138.587 53.8566 139.674 53.8566C142.787 53.8566 145.813 51.9251 145.813 48.0352C145.813 45.219 143.881 43.0782 140.856 43.0782C140.16 43.0782 139.512 43.1862 138.945 43.3753L138.918 38.8573C138.918 38.7087 138.877 38.6885 138.728 38.6885H136.527ZM143.226 48.2918C143.226 50.6217 141.632 51.7157 139.91 51.7157C139.552 51.7157 139.235 51.6955 138.945 51.6077V45.4756C139.275 45.3473 139.674 45.2393 140.41 45.2393C142.071 45.2393 143.226 46.2928 143.226 48.2918Z" fill="#4C4C4D"/>
<path d="M154.357 49.0496C155.383 49.0496 156.228 49.0293 156.518 48.9618C156.626 48.9415 156.666 48.901 156.687 48.8132C156.748 48.5836 156.775 48.1041 156.775 47.5166C156.775 45.5176 155.572 43.0796 152.466 43.0796C149.292 43.0796 147.529 45.6661 147.529 48.5836C147.529 51.1701 148.893 53.858 152.716 53.858C154.147 53.858 155.073 53.6284 155.87 53.2502C155.951 53.2097 155.991 53.1421 155.991 53.0206V51.2714C155.991 51.1701 155.93 51.1499 155.87 51.1904C155.073 51.5281 154.208 51.6969 153.263 51.6969C151.122 51.6969 150.149 50.5151 150.089 49.0496H154.357ZM150.089 47.2397C150.258 46.2132 150.906 45.0989 152.358 45.0989C153.958 45.0989 154.377 46.4428 154.377 47.0506C154.377 47.0708 154.377 47.1586 154.377 47.2194C154.289 47.2397 154.019 47.2397 153.222 47.2397H150.089Z" fill="#4C4C4D"/>
</g>
<defs>
<clipPath id="clip0_1_81">
<rect width="94.2083" height="34" fill="white" transform="translate(62.6815 30)"/>
</clipPath>
</defs>
</svg>
