<svg width="220" height="94" viewBox="0 0 220 94" fill="none" xmlns="http://www.w3.org/2000/svg">
<g clip-path="url(#clip0_1_96)">
<path d="M81.8562 56.9618C80.6734 57.1695 79.4698 57.2318 78.2247 57.3977L74.427 46.2747V57.875C73.2442 57.9995 72.1651 58.1655 71.0445 58.3315V37.0815H74.1989L78.5152 49.1386V37.0815H81.8562V56.9618ZM88.3931 44.8635C89.6798 44.8635 91.6513 44.8013 92.8341 44.8013V48.1215C91.3606 48.1215 89.6383 48.1215 88.3931 48.1838V53.1228C90.3439 52.9983 92.2946 52.8322 94.2659 52.7699V55.9655L85.0727 56.692V37.0815H94.2659V40.4019H88.3931V44.8635ZM106.613 40.4019H103.169V55.6753C102.048 55.6753 100.927 55.6754 99.8484 55.7167V40.4019H96.4036V37.0815H106.613L106.613 40.4019ZM112.009 44.6353H116.554V47.9556H112.009V55.4886H108.75V37.0815H118.027V40.4019H112.009V44.6353ZM123.422 52.5832C125.311 52.6246 127.22 52.7701 129.067 52.8737V56.1526C126.099 55.9657 123.132 55.7792 120.102 55.7167V37.0815H123.422V52.5832ZM131.868 56.3809C132.927 56.4432 134.047 56.5055 135.126 56.6298V37.0815H131.868V56.3809ZM149.674 37.0815L145.461 47.1878L149.674 58.3315C148.428 58.1655 147.183 57.9372 145.938 57.7297L143.552 51.5872L141.124 57.2318C139.92 57.0241 138.758 56.9618 137.555 56.7958L141.83 47.0632L137.97 37.0815H141.539L143.718 42.6638L146.042 37.0815H149.674V37.0815Z" fill="#4C4C4D"/>
</g>
<defs>
<clipPath id="clip0_1_96">
<rect width="78.625" height="34" fill="white" transform="translate(71.0447 30)"/>
</clipPath>
</defs>
</svg>
